<svg id="Layer_1" data-name="Layer 1" xmlns="http://www.w3.org/2000/svg" width="1920" height="1080" viewBox="0 0 1920 1080">
  <defs>
    <style>
      .cls-1 {
        font-size: 60px;
        fill: #fff;
        font-family: Arial-BoldMT, Arial;
        font-weight: 700;
      }

      .cls-2 {
        letter-spacing: -0.02em;
      }
    </style>
  </defs>
  <title>background-01</title>
  <g>
    <path d="M589.59,405.65C504.27,554,558.43,779.06,653,915.53,700.14,983.74,747.9,1045,813.34,1045h3.74c30.73-1.23,53-10.71,74.42-19.89,24.1-10.27,49.06-20.88,88.17-20.88,37.19,0,61,10.27,83.9,20.22s46,19.89,80.41,19.26c73.69-1.36,118.94-67.46,158.85-125.76a557.38,557.38,0,0,0,69.61-142.54l.29-.89a8.29,8.29,0,0,0-4.4-10.15l-.63-.26c-13-5.31-126.79-55.82-128-193.45-1.12-111.84,85.39-171,102.76-181.78l.83-.5a8.37,8.37,0,0,0,2.35-11.67c-59.76-87.47-151.28-100.73-188.11-102.19-5.37-.53-10.87-.8-16.57-.8-43.29,0-84.76,16.35-118,29.47-23,9.09-42.86,16.91-56.55,16.91C951,320.1,931,312.18,907.87,303c-30.92-12.26-66-26.18-103.08-26.18h-2.62C716.05,278.1,634.54,327.49,589.59,405.65Z"/>
    <path d="M1157.61,34c-52.24,2.12-114.93,34.31-152.48,78.2-31.86,36.86-63,98.35-54.76,160.33a8.31,8.31,0,0,0,7.56,7.19q5.33.4,10.74.4c51.08,0,106.07-28.24,143.82-73.75,39.61-48.06,59.67-109.75,53.6-165A8.35,8.35,0,0,0,1157.61,34Z"/>
  </g>
  <text class="cls-1" transform="translate(600.11 100.4)">Apples iPhone Timeline</tspan></text>
</svg>
